<svg xmlns="http://www.w3.org/2000/svg" xmlns:xlink="http://www.w3.org/1999/xlink" width="180" zoomAndPan="magnify" viewBox="0 0 135 135.000003" height="180" preserveAspectRatio="xMidYMid meet" version="1.0"><defs><clipPath id="aa8935e638"><path d="M 0.496094 0 L 134.503906 0 L 134.503906 134.007812 L 0.496094 134.007812 Z M 0.496094 0 " clip-rule="nonzero"/></clipPath><clipPath id="91a67762f6"><path d="M 67.5 0 C 30.496094 0 0.496094 30 0.496094 67.003906 C 0.496094 104.007812 30.496094 134.007812 67.5 134.007812 C 104.503906 134.007812 134.503906 104.007812 134.503906 67.003906 C 134.503906 30 104.503906 0 67.5 0 Z M 67.5 0 " clip-rule="nonzero"/></clipPath><clipPath id="fcbb4903ed"><path d="M 0.496094 0 L 134.503906 0 L 134.503906 134.007812 L 0.496094 134.007812 Z M 0.496094 0 " clip-rule="nonzero"/></clipPath><clipPath id="587989aa03"><path d="M 67.5 0 C 30.496094 0 0.496094 30 0.496094 67.003906 C 0.496094 104.007812 30.496094 134.007812 67.5 134.007812 C 104.503906 134.007812 134.503906 104.007812 134.503906 67.003906 C 134.503906 30 104.503906 0 67.5 0 Z M 67.5 0 " clip-rule="nonzero"/></clipPath><clipPath id="08e67bae9a"><rect x="0" width="135" y="0" height="135"/></clipPath></defs><g clip-path="url(#aa8935e638)"><g clip-path="url(#91a67762f6)"><g transform="matrix(1, 0, 0, 1, 0.000000000000000056, -0.000000000000003367)"><g clip-path="url(#08e67bae9a)"><g clip-path="url(#fcbb4903ed)"><g clip-path="url(#587989aa03)"><path fill="#0d1b3e" d="M 0.496094 0 L 134.503906 0 L 134.503906 134.007812 L 0.496094 134.007812 Z M 0.496094 0 " fill-opacity="1" fill-rule="nonzero"/></g></g></g></g><path stroke-linecap="butt" transform="matrix(0.744485, 0, 0, 0.744485, 0.496322, 0.00000694853)" fill="none" stroke-linejoin="miter" d="M 90.000004 -0.00000933333 C 40.29599 -0.00000933333 -0.000306642 40.296288 -0.000306642 90.000301 C -0.000306642 139.704314 40.29599 180.000611 90.000004 180.000611 C 139.704017 180.000611 180.000314 139.704314 180.000314 90.000301 C 180.000314 40.296288 139.704017 -0.00000933333 90.000004 -0.00000933333 Z M 90.000004 -0.00000933333 " stroke="#b8963e" stroke-width="2" stroke-opacity="1" stroke-miterlimit="4"/></g></g><path stroke-linecap="round" transform="matrix(0, 0.744485, -0.744485, 0, 42.238216, 11.48718)" fill="none" stroke-linejoin="miter" d="M 5.998701 6.002381 L 143.153025 6.002381 " stroke="#0055a4" stroke-width="12" stroke-opacity="1" stroke-miterlimit="4"/><path stroke-linecap="round" transform="matrix(0, 0.744485, -0.744485, 0, 71.90887, 11.48718)" fill="none" stroke-linejoin="miter" d="M 5.998701 6.000742 L 143.153025 6.000742 " stroke="#ffffff" stroke-width="12" stroke-opacity="1" stroke-miterlimit="4"/><path stroke-linecap="round" transform="matrix(0, 0.744485, -0.744485, 0, 101.688281, 11.48718)" fill="none" stroke-linejoin="miter" d="M 5.998701 5.998272 L 143.153025 5.998272 " stroke="#ef4135" stroke-width="12" stroke-opacity="1" stroke-miterlimit="4"/></svg>